<svg width="82" height="61" xmlns="http://www.w3.org/2000/svg"><g stroke="#A2C0F1" stroke-width="2" fill="none" fill-rule="evenodd" stroke-linecap="round" stroke-linejoin="bevel"><path d="M6.509 15.124v2.922m8.813 24.448v4.871m6.78-4.871v4.871m-15.69-4.871v4.871m8.91 5.649v5.844m6.78-5.844v5.844m-15.69-5.844v5.844M1.085 47.462h25.182m40.193-4.968v4.871m-6.78-4.871v4.871m15.69-4.871v4.871m-8.91 5.649v5.844m-6.78-5.844v5.844m15.69-5.844v5.844m5.328-11.396H55.516M1.085 36.164h10.072M1.085 31.293h10.073m64.116-16.169v2.922M29.463 21.65v2.922M41.085 1v2.922M52.32 21.455v2.922m-33.705 2.338v1.948m44.552-1.948v1.948M1 58.902V26.95h10.338v9.236h14.89v-4.58h7.617v-7.053h14.491v7.053h7.015v4.58h15.37V26.95h10.233v31.953zm10.352-22.544v22.403m59.37-22.501v22.403m-44.455-22.5v22.598M55.419 36.26v22.598M33.143 31.78v27.078M49.027 31.78v27.078M33.918 31.585h14.334"/><path d="M27.205 31.554V26.77a2.228 2.228 0 014.455 0v4.785h0m7.1-17.308V6.15a2.228 2.228 0 114.456 0v8.097h0M15.001 36.23v-3.723a3.68 3.68 0 017.361 0v3.723h0"/><path d="M35.274 24.572v-4.61a5.714 5.714 0 0111.429 0v4.61h0m-9.686 34.481V40.718a4.068 4.068 0 018.136 0v18.335h0m-41.8-32.27v-5.654a3.112 3.112 0 116.225 0v5.654h0m62.708 0v-5.654a3.112 3.112 0 116.224 0v5.654h0M59.501 36.23v-3.723a3.68 3.68 0 117.36 0v3.723h0m-16.658-4.676V26.77a2.228 2.228 0 014.455 0v4.785h0"/></g></svg>